<svg width="82" height="71" viewBox="0 0 82 71" fill="none" xmlns="http://www.w3.org/2000/svg">
<path d="M43.1405 0C45.231 0.283011 47.3313 0.493673 49.4119 0.85116C66.1603 3.81532 79.2233 16.0082 81.3877 30.6673C84.2152 49.8184 69.0791 67.2672 47.1218 70.1824C45.8005 70.3569 44.4693 70.4931 43.143 70.6463H38.7032C37.7024 70.5186 36.704 70.3803 35.7031 70.2675C27.2541 69.3335 19.3565 66.1377 13.1202 61.1294C6.88386 56.1211 2.62227 49.552 0.934299 42.3452C0.517685 40.5876 0.305681 38.7959 0 37.0255V33.6208C0.152841 32.6484 0.320474 31.678 0.456059 30.7035C2.46517 16.1891 15.8387 3.68978 32.4269 0.85116C34.505 0.497929 36.6177 0.276627 38.7032 0H43.1405ZM42.8546 68.346C44.3559 68.1822 46.0371 68.0779 47.6814 67.8098C68.3173 64.4605 81.8437 48.0097 78.676 30.1098C75.491 12.0418 54.8846 -0.574534 34.1451 2.82372C13.8962 6.14325 -0.0665614 22.7409 3.15295 40.4875C5.82274 55.2105 20.3796 67.031 37.6062 68.1673C37.8197 68.155 38.0267 68.0988 38.2099 68.0033C38.393 67.9078 38.547 67.7757 38.6588 67.6183C40.1232 64.7371 41.0673 61.741 40.9539 58.5619C40.8381 55.3403 40.6285 52.1229 40.52 48.9013C40.456 46.9755 40.5077 45.0455 40.5077 42.9644C41.585 43.5283 42.5292 43.8752 43.4511 43.1134C44.1907 42.492 44.9302 41.8473 45.7635 41.1195C46.0519 42.9304 45.517 44.405 44.489 45.7796C43.5276 47.0777 42.4725 48.2395 42.7831 50.0354C43.1011 51.8718 42.8546 53.7805 42.8546 55.6552V68.346Z" fill="white"/>
<path d="M48.4628 30.1885L43.567 31.7951C44.4471 30.4226 45.5737 29.2544 45.5909 27.618C44.8711 28.6522 44.1808 29.648 43.3304 30.8758C43.7938 28.1287 44.203 25.7008 44.6147 23.2707L44.1882 23.2111C43.9417 26.0753 43.3328 28.8628 41.7009 31.7227L40.244 29.5544L40.0665 29.5842C40.3302 30.4694 40.5915 31.3525 40.9169 32.4484C39.0705 30.7609 37.4904 29.1586 36.5585 27.169C36.206 26.4158 36.312 25.8561 37.483 25.6306C38.9448 25.3539 39.1149 24.7475 38.0919 23.775C37.4632 23.175 36.7064 22.6749 36.0113 22.1259C35.4799 21.7367 34.9738 21.3225 34.4952 20.8853C33.3439 19.749 33.1319 18.0935 34.0021 16.9423C35.04 15.5613 36.6892 14.8421 38.4222 13.8463V16.2444C38.8511 14.9251 39.2751 13.6313 40.8085 12.9866C42.1545 12.4206 43.5202 11.7524 44.9648 11.5396C47.0355 11.2374 49.8754 12.7078 50.5755 14.1101C51.6676 13.4888 52.3356 14.0378 51.9831 15.289C51.8722 15.689 51.675 16.072 51.7243 16.5657C52.0152 16.1742 52.3184 15.789 52.592 15.389C52.9716 14.8379 53.3784 14.7251 53.938 15.2315C55.3801 16.538 56.1049 18.1425 56.4032 19.8767C56.4226 20.1172 56.3838 20.3585 56.2891 20.5853C56.1945 20.8121 56.0461 21.0194 55.8534 21.1939C54.7022 22.1302 53.4425 22.9813 52.2 23.8325C51.1548 24.5496 50.0775 25.2284 48.84 26.0391C47.8539 25.4348 47.6074 24.4411 48.204 23.0601C47.1514 23.7367 47.0996 24.4666 47.4472 25.0965C47.8874 25.8877 48.4596 26.619 49.1457 27.2669C50.3931 28.4436 50.435 28.5628 49.0569 29.7246C48.9284 29.857 48.8145 29.9995 48.7168 30.1502L48.4628 30.1885Z" fill="white"/>
<path d="M28.8771 51.0695C29.5181 50.1885 30.0777 49.4246 30.6348 48.6628L30.4425 48.5224C30.2663 48.6263 30.0976 48.7393 29.9371 48.8607C27.578 50.8567 24.9082 52.4781 22.0979 53.9677C20.9072 54.606 20.1258 55.7934 19.1224 56.7148C18.862 56.9209 18.5815 57.1074 18.2843 57.2723C18.0945 57.0276 17.7912 56.802 17.7321 56.5382C16.8274 52.5165 21.2992 46.3243 25.8203 45.0837C29.2272 44.1474 31.7367 45.2241 34.1255 47.2116C39.1199 51.3823 40.8184 56.3914 39.5291 62.3473C39.2136 60.9642 38.9695 59.679 38.6195 58.415C37.3869 53.9464 34.9217 51.9909 29.6906 51.2376C29.454 51.2206 29.2247 51.1546 28.8771 51.0695Z" fill="white"/>
<path d="M37.3152 30.2268L32.0471 30.6843L32.0767 31.0545C33.9872 30.5098 35.8484 30.5417 37.5765 31.2524C37.256 32.0312 37.0366 32.7867 36.6422 33.4655C36.1603 34.2251 35.6286 34.9604 35.0497 35.6678C34.2288 36.7509 33.3685 37.8128 32.5648 38.9022C31.6231 40.179 30.8392 41.5557 29.7693 42.7325C28.7463 43.8539 27.701 43.8283 26.5276 42.8091C25.8481 42.2471 25.3043 41.5745 24.9277 40.8301C24.1882 39.2236 23.6113 37.5595 23.032 35.904C22.5981 34.6698 23.0887 33.7229 24.3213 32.9675C25.0017 32.5419 25.5218 31.9397 26.1085 31.412C26.3082 31.2354 26.4537 30.9716 26.6928 30.8737C29.9887 29.5203 33.3487 28.6372 36.9578 29.9948C37.0862 30.0609 37.206 30.1387 37.3152 30.2268Z" fill="white"/>
<path d="M64.2621 59.2514C60.2463 57.3767 56.3957 55.8063 54.4877 52.0463C54.3249 52.2847 54.2609 52.3357 54.2682 52.3762C54.6577 54.187 54.6504 54.1721 52.6363 54.9445C49.7027 56.0723 47.6912 58.0449 46.0839 60.3664C45.4429 61.2963 44.8759 62.2645 44.1832 63.1774C44.9943 59.0024 46.3057 54.9892 49.1604 51.4739C49.9333 50.5186 50.7687 49.6021 51.6626 48.7289C52.8089 47.6139 54.2066 47.3905 55.9002 47.8224C59.8272 48.8204 62.1494 51.0526 63.0837 54.4189C63.5003 55.9255 63.8257 57.4533 64.2621 59.2514Z" fill="white"/>
<path d="M37.3399 29.7735C35.9471 29.1352 34.5888 28.4308 33.1491 27.8691C31.214 27.1094 29.1901 26.5157 27.2648 25.7412C25.4677 25.0155 23.7741 24.1261 23.3205 22.2301C22.9384 20.6257 23.4487 19.9894 25.2458 19.5277C26.2935 19.2596 27.2746 18.7893 28.2681 18.3765C29.974 17.6679 31.2707 17.853 32.3652 19.1808C33.301 20.341 34.1476 21.553 34.8994 22.8089C35.1459 23.2004 35.1237 23.7941 34.9931 24.2452C34.6011 25.605 35.0597 26.7476 35.9644 27.8222C36.4574 28.4223 36.9504 29.0288 37.4583 29.631L37.3399 29.7735Z" fill="white"/>
<path d="M48.4628 30.1885L48.7093 30.1374C49.87 29.6026 50.8193 28.7809 51.4358 27.7776C51.7538 27.2456 52.6338 26.7817 53.3512 26.6477C54.7194 26.3902 55.4121 25.7476 55.6833 24.6262C55.8647 23.7815 56.2667 22.9836 56.8587 22.293C57.4507 21.6024 58.2172 21.0373 59.1 20.6406C60.0022 21.7046 60.9661 22.6749 61.718 23.7537C63.6901 26.5647 62.142 29.4182 58.3802 29.9672C57.3423 30.1204 56.2626 30.0566 55.2001 30.0672C54.1376 30.0779 53.1466 29.997 52.126 30.0566C51.2523 30.136 50.3895 30.2885 49.5499 30.512C51.8844 30.9375 53.6347 31.8249 53.8245 34.4315C52.9395 34.0847 52.1778 33.9251 51.6256 33.5421C49.8161 32.293 47.8317 31.7589 45.5391 32.1419C45.4479 32.1589 45.3419 32.1058 45.12 32.0589C46.1825 31.2354 48.0708 31.6738 48.4628 30.1885Z" fill="white"/>
<path d="M48.8104 32.4717C49.4563 32.7738 50.0578 32.9419 50.4892 33.2739C51.17 33.8261 52.0025 34.2196 52.9082 34.4173C53.8139 34.6149 54.763 34.6103 55.6661 34.4038C58.4246 33.8144 60.3524 35.2209 62.4971 36.1742C62.6773 36.2597 62.8131 36.4012 62.8767 36.57C63.2046 37.7914 63.8628 39.0511 63.7025 40.23C63.5694 41.2493 62.5809 42.2217 61.8339 43.1303C61.2423 43.8474 59.9481 43.7283 59.2849 42.9495C58.7919 42.3834 58.4369 41.7387 58.0031 41.1386C56.9455 39.6661 55.7129 38.4192 53.6323 37.8404C50.7826 37.0445 49.1186 35.2826 48.8104 32.4717Z" fill="white"/>
<path d="M40.3501 36.3126C41.5826 35.8743 42.8152 35.387 44.0848 35.0125C45.1177 34.7082 45.7167 35.1508 45.8942 36.0615C46.3528 38.4022 45.5639 40.4727 43.8136 42.2473C42.7043 43.3709 41.3016 43.2815 40.3106 42.0835C39.2432 40.8067 38.903 39.2981 39.078 37.7617C39.1397 37.2361 39.7091 36.7531 40.0468 36.2509L40.3501 36.3126Z" fill="white"/>
<path d="M54.4457 38.7702C53.4942 41.6621 50.2254 43.4091 47.0847 42.7898C46.8382 42.7388 46.4315 42.1898 46.5104 42.0536C47.7996 39.8831 47.5556 37.5148 47.7972 35.2081C47.8782 34.63 48.068 34.0673 48.3592 33.542C49.0051 36.5104 51.6601 37.6871 54.4457 38.7702Z" fill="white"/>
<path d="M40.3499 36.3125L40.0491 36.2508C38.077 36.5104 36.4648 35.0954 37.0194 33.5122C37.2413 32.8738 37.759 32.327 38.1583 31.7375C38.7401 32.1887 39.3613 32.6079 39.884 33.0973C40.191 33.4311 40.4563 33.792 40.6753 34.174C41.2176 34.9592 40.9218 35.6529 40.3499 36.3125Z" fill="white"/>
<path d="M41.3804 35.1315C41.6269 33.4632 43.0197 32.7588 46.5942 32.446C46.0554 33.2349 45.2956 33.8943 44.3846 34.3635C43.4735 34.8327 42.4405 35.0968 41.3804 35.1315Z" fill="white"/>
</svg>
