<svg width="83" height="72" viewBox="0 0 83 72" fill="none" xmlns="http://www.w3.org/2000/svg">
<path d="M43.8905 0.443604C45.981 0.726614 48.0813 0.937276 50.1619 1.29476C66.9103 4.25893 79.9733 16.4518 82.1377 31.1109C84.9652 50.262 69.8291 67.7108 47.8718 70.626C46.5504 70.8005 45.2193 70.9367 43.893 71.0899H39.4532C38.4524 70.9622 37.454 70.8239 36.4531 70.7111C28.0041 69.7771 20.1065 66.5813 13.8702 61.573C7.63386 56.5647 3.37227 49.9956 1.6843 42.7888C1.26768 41.0312 1.05568 39.2395 0.75 37.4691V34.0644C0.902841 33.092 1.07047 32.1216 1.20606 31.1471C3.21517 16.6327 16.5887 4.13338 33.1769 1.29476C35.255 0.941532 37.3677 0.72023 39.4532 0.443604H43.8905ZM43.6046 68.7896C45.1059 68.6258 46.7871 68.5215 48.4314 68.2534C69.0673 64.9041 82.5938 48.4533 79.426 30.5534C76.241 12.4854 55.6346 -0.13093 34.8951 3.26733C14.6462 6.58685 0.683439 23.1845 3.90295 40.9311C6.57274 55.6541 21.1296 67.4746 38.3562 68.6109C38.5697 68.5986 38.7767 68.5424 38.9599 68.4469C39.143 68.3514 39.297 68.2193 39.4088 68.0619C40.8732 65.1807 41.8173 62.1846 41.7039 59.0055C41.5881 55.7839 41.3785 52.5665 41.2701 49.3449C41.206 47.4191 41.2577 45.4891 41.2577 43.408C42.335 43.9719 43.2792 44.3188 44.2011 43.557C44.9407 42.9356 45.6802 42.2909 46.5135 41.5631C46.8019 43.374 46.267 44.8486 45.239 46.2232C44.2776 47.5213 43.2225 48.6831 43.5331 50.479C43.8511 52.3154 43.6046 54.2241 43.6046 56.0988V68.7896Z" fill="#0097A7"/>
<path d="M49.2128 30.6321L44.317 32.2387C45.1971 30.8662 46.3237 29.698 46.3409 28.0616C45.6211 29.0958 44.9308 30.0916 44.0803 31.3194C44.5438 28.5723 44.953 26.1444 45.3647 23.7143L44.9382 23.6547C44.6917 26.5189 44.0828 29.3064 42.4509 32.1663L40.994 29.998L40.8165 30.0278C41.0802 30.913 41.3415 31.7961 41.6669 32.892C39.8205 31.2045 38.2404 29.6022 37.3085 27.6126C36.956 26.8594 37.062 26.2997 38.233 26.0742C39.6948 25.7975 39.8649 25.1911 38.8419 24.2186C38.2132 23.6186 37.4564 23.1185 36.7613 22.5695C36.2299 22.1803 35.7238 21.7661 35.2452 21.3289C34.0939 20.1926 33.8819 18.5371 34.7521 17.386C35.79 16.0049 37.4392 15.2857 39.1722 14.2899V16.688C39.6011 15.3687 40.0251 14.0749 41.5585 13.4302C42.9045 12.8642 44.2702 12.196 45.7148 11.9832C47.7855 11.6811 50.6254 13.1514 51.3255 14.5537C52.4176 13.9324 53.0856 14.4814 52.7331 15.7326C52.6222 16.1326 52.425 16.5156 52.4743 17.0093C52.7652 16.6178 53.0684 16.2326 53.342 15.8326C53.7216 15.2815 54.1284 15.1687 54.688 15.6751C56.1301 16.9817 56.8549 18.5861 57.1532 20.3203C57.1726 20.5608 57.1338 20.8021 57.0391 21.0289C56.9445 21.2557 56.7961 21.463 56.6034 21.6375C55.4522 22.5738 54.1925 23.4249 52.95 24.2761C51.9048 24.9932 50.8275 25.672 49.59 26.4827C48.6039 25.8784 48.3574 24.8847 48.954 23.5037C47.9014 24.1803 47.8496 24.9102 48.1972 25.5401C48.6374 26.3313 49.2096 27.0626 49.8957 27.7105C51.1431 28.8872 51.185 29.0064 49.8069 30.1682C49.6784 30.3006 49.5645 30.4431 49.4668 30.5938L49.2128 30.6321Z" fill="#0097A7"/>
<path d="M29.6271 51.5131C30.2681 50.6321 30.8277 49.8682 31.3848 49.1064L31.1925 48.966C31.0163 49.0699 30.8476 49.1829 30.6871 49.3043C28.328 51.3003 25.6582 52.9217 22.8479 54.4113C21.6572 55.0496 20.8758 56.237 19.8724 57.1584C19.612 57.3645 19.3315 57.551 19.0343 57.7159C18.8445 57.4712 18.5412 57.2456 18.4821 56.9818C17.5774 52.9601 22.0492 46.7679 26.5703 45.5273C29.9772 44.591 32.4867 45.6677 34.8755 47.6552C39.8699 51.8259 41.5684 56.835 40.2791 62.7909C39.9636 61.4078 39.7195 60.1226 39.3695 58.8586C38.1369 54.39 35.6717 52.4345 30.4406 51.6812C30.204 51.6642 29.9747 51.5982 29.6271 51.5131Z" fill="#0097A7"/>
<path d="M38.0652 30.6704L32.7971 31.1279L32.8267 31.4981C34.7372 30.9534 36.5984 30.9853 38.3265 31.696C38.006 32.4749 37.7866 33.2303 37.3922 33.9091C36.9103 34.6687 36.3786 35.404 35.7997 36.1114C34.9788 37.1945 34.1185 38.2564 33.3148 39.3458C32.3731 40.6226 31.5892 41.9993 30.5193 43.1761C29.4963 44.2975 28.451 44.2719 27.2776 43.2527C26.5981 42.6907 26.0543 42.0181 25.6777 41.2737C24.9382 39.6672 24.3613 38.0031 23.782 36.3476C23.3481 35.1134 23.8387 34.1665 25.0713 33.4111C25.7517 32.9855 26.2718 32.3834 26.8585 31.8556C27.0582 31.679 27.2037 31.4152 27.4428 31.3173C30.7387 29.9639 34.0987 29.0809 37.7078 30.4385C37.8362 30.5045 37.956 30.5823 38.0652 30.6704Z" fill="#0097A7"/>
<path d="M65.0121 59.695C60.9963 57.8203 57.1457 56.2499 55.2376 52.4899C55.0749 52.7283 55.0109 52.7793 55.0182 52.8198C55.4077 54.6306 55.4004 54.6157 53.3863 55.3881C50.4527 56.5159 48.4412 58.4885 46.8339 60.81C46.1929 61.7399 45.6259 62.7081 44.9332 63.621C45.7443 59.446 47.0557 55.4328 49.9104 51.9175C50.6833 50.9622 51.5187 50.0457 52.4126 49.1725C53.5589 48.0575 54.9566 47.8341 56.6502 48.2661C60.5772 49.264 62.8994 51.4962 63.8337 54.8625C64.2503 56.3691 64.5757 57.8969 65.0121 59.695Z" fill="#0097A7"/>
<path d="M38.0899 30.2171C36.6971 29.5788 35.3388 28.8744 33.8991 28.3127C31.964 27.553 29.9401 26.9593 28.0148 26.1848C26.2177 25.4591 24.5241 24.5697 24.0705 22.6737C23.6884 21.0693 24.1987 20.433 25.9958 19.9713C27.0435 19.7032 28.0246 19.2329 29.0181 18.8201C30.724 18.1115 32.0207 18.2966 33.1152 19.6244C34.051 20.7846 34.8976 21.9966 35.6494 23.2525C35.8959 23.644 35.8737 24.2377 35.7431 24.6888C35.3511 26.0486 35.8097 27.1913 36.7144 28.2658C37.2074 28.8659 37.7004 29.4724 38.2083 30.0746L38.0899 30.2171Z" fill="#0097A7"/>
<path d="M49.2128 30.6321L49.4593 30.581C50.62 30.0462 51.5693 29.2245 52.1858 28.2212C52.5038 27.6892 53.3838 27.2253 54.1012 27.0913C55.4694 26.8338 56.1621 26.1912 56.4333 25.0698C56.6147 24.2251 57.0167 23.4272 57.6087 22.7366C58.2007 22.046 58.9672 21.4809 59.85 21.0842C60.7522 22.1482 61.7161 23.1185 62.468 24.1973C64.4401 27.0083 62.892 29.8618 59.1302 30.4108C58.0923 30.564 57.0126 30.5002 55.9501 30.5108C54.8876 30.5215 53.8966 30.4406 52.876 30.5002C52.0023 30.5796 51.1395 30.7321 50.2999 30.9556C52.6344 31.3811 54.3847 32.2685 54.5745 34.8751C53.6895 34.5283 52.9278 34.3687 52.3756 33.9857C50.5661 32.7366 48.5817 32.2025 46.2891 32.5855C46.1979 32.6026 46.0919 32.5494 45.87 32.5025C46.9325 31.679 48.8208 32.1174 49.2128 30.6321Z" fill="#0097A7"/>
<path d="M49.5604 32.9153C50.2063 33.2174 50.8078 33.3855 51.2392 33.7175C51.92 34.2697 52.7525 34.6632 53.6582 34.8609C54.5639 35.0585 55.513 35.0539 56.4161 34.8474C59.1746 34.258 61.1024 35.6645 63.2471 36.6178C63.4273 36.7033 63.5631 36.8448 63.6267 37.0136C63.9546 38.235 64.6128 39.4947 64.4525 40.6736C64.3194 41.6929 63.3309 42.6653 62.5839 43.5739C61.9923 44.291 60.6981 44.1719 60.0349 43.3931C59.5419 42.827 59.1869 42.1823 58.7531 41.5822C57.6955 40.1097 56.4629 38.8628 54.3823 38.284C51.5326 37.4881 49.8686 35.7262 49.5604 32.9153Z" fill="#0097A7"/>
<path d="M41.1001 36.7562C42.3326 36.3179 43.5652 35.8306 44.8348 35.4561C45.8677 35.1518 46.4667 35.5944 46.6442 36.5051C47.1028 38.8458 46.3139 40.9163 44.5636 42.6909C43.4543 43.8145 42.0516 43.7251 41.0606 42.5271C39.9932 41.2503 39.653 39.7417 39.828 38.2053C39.8897 37.6797 40.4591 37.1967 40.7968 36.6945L41.1001 36.7562Z" fill="#0097A7"/>
<path d="M55.1957 39.2138C54.2442 42.1057 50.9754 43.8527 47.8347 43.2334C47.5882 43.1824 47.1815 42.6334 47.2604 42.4972C48.5496 40.3267 48.3056 37.9584 48.5472 35.6517C48.6282 35.0736 48.818 34.5109 49.1092 33.9856C49.7551 36.954 52.4101 38.1307 55.1957 39.2138Z" fill="#0097A7"/>
<path d="M41.0999 36.7561L40.7991 36.6944C38.827 36.954 37.2148 35.539 37.7694 33.9558C37.9913 33.3175 38.509 32.7706 38.9083 32.1812C39.4901 32.6323 40.1113 33.0515 40.634 33.5409C40.941 33.8747 41.2063 34.2356 41.4253 34.6176C41.9676 35.4028 41.6718 36.0965 41.0999 36.7561Z" fill="#0097A7"/>
<path d="M42.1304 35.5751C42.3769 33.9068 43.7697 33.2024 47.3442 32.8896C46.8054 33.6785 46.0456 34.3379 45.1346 34.8071C44.2235 35.2763 43.1905 35.5404 42.1304 35.5751Z" fill="#0097A7"/>
</svg>
